<svg width="112.14" height="20.4" viewBox="0 0 112.14 20.4" xmlns="http://www.w3.org/2000/svg"><g id="svgGroup" stroke-linecap="round" fill-rule="evenodd" font-size="9pt" stroke="#ffffff" stroke-width="0.25mm" fill="#ffffff" style="stroke:#ffffff;stroke-width:0.25mm;fill:#ffffff"><path d="M 15.27 20.1 L 0 20.1 L 0 0.3 L 14.85 0.3 L 14.85 3.63 L 4.14 3.63 L 4.14 8.55 L 12.57 8.55 L 12.57 11.73 L 4.14 11.73 L 4.14 16.77 L 15.27 16.77 L 15.27 20.1 Z" id="0"/><path d="M 18.93 10.38 L 29.52 10.38 L 29.52 13.92 L 18.93 13.92 L 18.93 10.38 Z" id="1"/><path d="M 47.76 13.5 L 51.57 14.64 A 8.466 8.466 0 0 1 50.727 16.589 A 7.121 7.121 0 0 1 49.77 17.85 Q 48.54 19.14 46.86 19.77 A 9.958 9.958 0 0 1 44.215 20.356 A 12.042 12.042 0 0 1 43.17 20.4 Q 40.23 20.4 38.085 19.17 Q 35.94 17.94 34.785 15.66 A 10.315 10.315 0 0 1 33.867 12.897 Q 33.63 11.641 33.63 10.2 A 14.673 14.673 0 0 1 33.843 7.633 Q 34.126 6.04 34.785 4.74 Q 35.94 2.46 38.085 1.23 Q 40.23 0 43.11 0 A 12.951 12.951 0 0 1 45.167 0.157 A 10.189 10.189 0 0 1 46.8 0.555 A 7.274 7.274 0 0 1 48.997 1.725 A 6.817 6.817 0 0 1 49.605 2.265 A 6.738 6.738 0 0 1 51.096 4.559 A 8.138 8.138 0 0 1 51.3 5.13 L 47.55 6.72 A 7.023 7.023 0 0 0 47.168 5.673 Q 46.921 5.143 46.604 4.748 A 3.217 3.217 0 0 0 45.99 4.155 A 3.822 3.822 0 0 0 44.619 3.537 Q 44.088 3.408 43.469 3.392 A 6.909 6.909 0 0 0 43.29 3.39 A 5.68 5.68 0 0 0 41.727 3.597 A 4.752 4.752 0 0 0 40.455 4.17 Q 39.24 4.95 38.58 6.465 A 7.34 7.34 0 0 0 38.117 7.983 Q 37.92 8.986 37.92 10.2 A 13 13 0 0 0 38.02 11.856 Q 38.167 13.006 38.535 13.92 Q 39.15 15.45 40.35 16.23 A 4.706 4.706 0 0 0 42.013 16.891 A 6.53 6.53 0 0 0 43.29 17.01 A 5.06 5.06 0 0 0 44.834 16.782 A 4.346 4.346 0 0 0 46.095 16.14 A 4.067 4.067 0 0 0 47.274 14.751 Q 47.572 14.195 47.76 13.5 Z" id="2"/><path d="M 68.46 13.89 L 56.49 13.89 L 56.49 11.04 L 66.66 11.04 L 64.68 11.76 A 6.705 6.705 0 0 0 64.592 10.639 Q 64.49 10.04 64.271 9.561 A 3.14 3.14 0 0 0 63.825 8.85 A 2.782 2.782 0 0 0 62.103 7.886 A 4.098 4.098 0 0 0 61.41 7.83 A 4.034 4.034 0 0 0 60.41 7.949 A 3.188 3.188 0 0 0 59.445 8.37 A 3.073 3.073 0 0 0 58.472 9.41 A 4.081 4.081 0 0 0 58.2 9.975 A 5.4 5.4 0 0 0 57.928 10.932 Q 57.78 11.698 57.78 12.66 Q 57.78 13.873 58.05 14.763 A 4.388 4.388 0 0 0 58.245 15.285 A 3.778 3.778 0 0 0 58.767 16.14 A 3.048 3.048 0 0 0 59.565 16.83 Q 60.42 17.34 61.62 17.34 A 5.604 5.604 0 0 0 62.467 17.28 Q 63.218 17.165 63.75 16.83 Q 64.56 16.32 65.01 15.42 L 68.28 16.68 Q 67.8 17.85 66.825 18.69 A 6.489 6.489 0 0 1 64.963 19.804 A 7.64 7.64 0 0 1 64.515 19.965 A 8.964 8.964 0 0 1 62.217 20.385 A 10.394 10.394 0 0 1 61.65 20.4 Q 59.28 20.4 57.525 19.47 Q 55.77 18.54 54.81 16.8 A 7.459 7.459 0 0 1 54.034 14.615 Q 53.85 13.676 53.85 12.6 Q 53.85 10.185 54.776 8.463 A 6.662 6.662 0 0 1 54.81 8.4 Q 55.77 6.66 57.495 5.73 A 7.765 7.765 0 0 1 60.296 4.866 A 9.739 9.739 0 0 1 61.44 4.8 A 9.512 9.512 0 0 1 63.179 4.951 Q 64.273 5.155 65.161 5.632 A 5.952 5.952 0 0 1 65.31 5.715 Q 66.9 6.63 67.74 8.205 Q 68.58 9.78 68.58 11.79 A 21.948 21.948 0 0 1 68.58 11.799 Q 68.58 12.227 68.564 12.624 A 18.381 18.381 0 0 1 68.55 12.93 Q 68.524 13.394 68.476 13.77 A 8.163 8.163 0 0 1 68.46 13.89 Z" id="3"/><path d="M 76.17 20.1 L 72.06 20.1 L 72.06 5.1 L 75.63 5.1 L 75.9 8.04 A 6.028 6.028 0 0 1 76.558 6.774 A 4.661 4.661 0 0 1 77.655 5.64 A 4.281 4.281 0 0 1 79.327 4.918 A 6.023 6.023 0 0 1 80.55 4.8 A 5.023 5.023 0 0 1 81.066 4.825 A 3.879 3.879 0 0 1 81.48 4.89 A 3.425 3.425 0 0 1 81.774 4.966 Q 82.001 5.036 82.17 5.13 L 81.69 8.58 A 2.413 2.413 0 0 0 81.413 8.49 Q 81.271 8.452 81.108 8.424 A 4.579 4.579 0 0 0 80.955 8.4 Q 80.663 8.36 80.255 8.347 A 13.147 13.147 0 0 0 79.83 8.34 Q 78.93 8.34 78.09 8.775 Q 77.25 9.21 76.71 10.095 A 3.494 3.494 0 0 0 76.297 11.131 Q 76.194 11.574 76.174 12.089 A 6.442 6.442 0 0 0 76.17 12.33 L 76.17 20.1 Z" id="4"/><path d="M 85.92 1.65 L 90.03 0.51 L 90.03 15.21 Q 90.03 16.29 90.585 16.785 Q 91.103 17.247 91.975 17.278 A 3.572 3.572 0 0 0 92.1 17.28 Q 92.764 17.28 93.265 17.117 A 2.568 2.568 0 0 0 93.435 17.055 Q 93.99 16.83 94.44 16.44 L 95.1 19.17 A 4.692 4.692 0 0 1 94.233 19.708 Q 93.81 19.914 93.308 20.068 A 7.654 7.654 0 0 1 93.3 20.07 Q 92.22 20.4 91.02 20.4 A 8.546 8.546 0 0 1 89.69 20.301 A 6.371 6.371 0 0 1 88.365 19.95 Q 87.21 19.5 86.565 18.51 Q 86.041 17.706 85.943 16.467 A 7.542 7.542 0 0 1 85.92 15.87 L 85.92 1.65 Z M 83.16 5.1 L 94.83 5.1 L 94.83 8.16 L 83.16 8.16 L 83.16 5.1 Z" id="5"/><path d="M 104.46 4.8 Q 106.74 4.8 108.465 5.73 Q 110.19 6.66 111.165 8.4 A 7.385 7.385 0 0 1 111.953 10.585 Q 112.14 11.524 112.14 12.6 A 10.185 10.185 0 0 1 111.953 14.597 A 7.5 7.5 0 0 1 111.165 16.785 Q 110.19 18.54 108.465 19.47 Q 106.74 20.4 104.46 20.4 A 9.271 9.271 0 0 1 102.244 20.145 A 7.581 7.581 0 0 1 100.47 19.47 Q 98.73 18.54 97.755 16.785 A 7.557 7.557 0 0 1 96.941 14.463 A 10.304 10.304 0 0 1 96.78 12.6 A 10.358 10.358 0 0 1 96.96 10.619 A 7.401 7.401 0 0 1 97.755 8.4 Q 98.73 6.66 100.47 5.73 A 7.866 7.866 0 0 1 103.235 4.874 A 9.94 9.94 0 0 1 104.46 4.8 Z M 104.46 7.86 A 4.118 4.118 0 0 0 103.536 7.959 A 3.062 3.062 0 0 0 102.525 8.385 A 2.997 2.997 0 0 0 101.63 9.321 A 4.072 4.072 0 0 0 101.31 9.96 A 5.272 5.272 0 0 0 101.038 10.902 Q 100.946 11.373 100.911 11.919 A 10.738 10.738 0 0 0 100.89 12.6 Q 100.89 13.815 101.135 14.715 A 4.844 4.844 0 0 0 101.31 15.24 A 3.91 3.91 0 0 0 101.745 16.052 A 2.937 2.937 0 0 0 102.525 16.815 A 3.111 3.111 0 0 0 103.685 17.272 A 4.241 4.241 0 0 0 104.46 17.34 Q 105.57 17.34 106.365 16.815 A 2.997 2.997 0 0 0 107.26 15.879 A 4.072 4.072 0 0 0 107.58 15.24 A 5.272 5.272 0 0 0 107.852 14.298 Q 107.944 13.827 107.979 13.281 A 10.738 10.738 0 0 0 108 12.6 Q 108 11.385 107.755 10.485 A 4.844 4.844 0 0 0 107.58 9.96 A 3.91 3.91 0 0 0 107.145 9.148 A 2.937 2.937 0 0 0 106.365 8.385 A 3.14 3.14 0 0 0 105.107 7.909 A 4.151 4.151 0 0 0 104.46 7.86 Z" id="6"/></g></svg>