<svg
                      xmlns="http://www.w3.org/2000/svg"
                      width="7em"
                      height="4rem"
                      viewBox="0 0 468.98 112.87"
                      fill="#fff"
                    >
                      <path
                        d="M161.27,107q-11.11,0-19.09-4.72a32.35,32.35,0,0,1-12.27-13.32,43.87,43.87,0,0,1-4.3-19.83,43.86,43.86,0,0,1,4.3-19.82,32.13,32.13,0,0,1,12.27-13.42q8-4.83,19.09-4.83,13.22,0,21.61,6.61T193.47,56H178.68a15.47,15.47,0,0,0-5.87-9.34q-4.41-3.47-11.75-3.46-10.17,0-15.94,6.92t-5.77,19q0,12.08,5.77,19t15.94,6.82q7.35,0,11.75-3.15a14.89,14.89,0,0,0,5.87-8.92h14.79q-2.1,11.34-10.59,17.73T161.27,107Z"
                        transform="translate(-26.03 -13.57)"
                      ></path>
                      <path
                        d="M225.07,107a28.4,28.4,0,0,1-13.95-3.36,24.26,24.26,0,0,1-9.54-9.44,27.88,27.88,0,0,1-3.46-14.05,30.12,30.12,0,0,1,3.35-14.37A24.82,24.82,0,0,1,210.91,56a27.69,27.69,0,0,1,14.27-3.57,26.79,26.79,0,0,1,13.53,3.36A23.63,23.63,0,0,1,247.83,65a25.18,25.18,0,0,1,3.36,12.9c0,.77,0,1.58-.11,2.42s0,1.71-.1,2.62H211.44a13.05,13.05,0,0,0,13.53,13,12.19,12.19,0,0,0,6.81-1.78,11.65,11.65,0,0,0,4.2-4.82h13.63a24.88,24.88,0,0,1-4.93,9,23.69,23.69,0,0,1-8.39,6.29A26.1,26.1,0,0,1,225.07,107Zm.11-43.63a14.12,14.12,0,0,0-8.71,2.83q-3.78,2.73-4.82,8.39h25.9a11.34,11.34,0,0,0-3.77-8.18A12.56,12.56,0,0,0,225.18,63.32Z"
                        transform="translate(-26.03 -13.57)"
                      ></path>
                      <path
                        d="M256.18,105.69v-52h12l1.26,9.75a21.22,21.22,0,0,1,19.19-11V66.57h-3.77A21.33,21.33,0,0,0,277,67.93a10.79,10.79,0,0,0-5.45,4.72Q269.61,76,269.61,82v23.7Z"
                        transform="translate(-26.03 -13.57)"
                      ></path>
                      <path
                        d="M334.46,45.59a8.68,8.68,0,0,1-6.08-2.2,7.36,7.36,0,0,1-2.31-5.56,7,7,0,0,1,2.31-5.45,8.68,8.68,0,0,1,6.08-2.21,8.3,8.3,0,0,1,6,2.21,6.87,6.87,0,0,1,2.41,5.45,7.2,7.2,0,0,1-2.41,5.56A8.3,8.3,0,0,1,334.46,45.59Zm-6.71,60.1v-52h13.43v52Z"
                        transform="translate(-26.03 -13.57)"
                      ></path>
                      <path
                        d="M354.45,105.69V64.89h-7.13V53.67h7.13V47.58q0-9.44,4.72-13.42t13-4H378V41.61h-3.67q-3.46,0-4.93,1.36t-1.47,4.61v6.09h31.46v52H385.92V64.89h-18v40.8Zm38.28-59.47a8.68,8.68,0,0,1-6.08-2.2,7.36,7.36,0,0,1-2.31-5.56A7,7,0,0,1,386.65,33a8.68,8.68,0,0,1,6.08-2.21,8.3,8.3,0,0,1,6,2.21,6.86,6.86,0,0,1,2.42,5.45A7.21,7.21,0,0,1,398.71,44,8.3,8.3,0,0,1,392.73,46.22Z"
                        transform="translate(-26.03 -13.57)"
                      ></path>
                      <path
                        d="M431.48,107a28.4,28.4,0,0,1-14-3.36A24.32,24.32,0,0,1,408,94.15a27.88,27.88,0,0,1-3.46-14.05,30.12,30.12,0,0,1,3.35-14.37A24.82,24.82,0,0,1,417.32,56a27.69,27.69,0,0,1,14.27-3.57,26.79,26.79,0,0,1,13.53,3.36A23.63,23.63,0,0,1,454.24,65a25.18,25.18,0,0,1,3.36,12.9c0,.77,0,1.58-.11,2.42s0,1.71-.1,2.62H417.85a13.05,13.05,0,0,0,13.53,13,12.17,12.17,0,0,0,6.81-1.78,11.65,11.65,0,0,0,4.2-4.82H456a24.73,24.73,0,0,1-4.93,9,23.69,23.69,0,0,1-8.39,6.29A26.1,26.1,0,0,1,431.48,107Zm.11-43.63a14.12,14.12,0,0,0-8.71,2.83q-3.78,2.73-4.82,8.39H444a11.34,11.34,0,0,0-3.77-8.18A12.56,12.56,0,0,0,431.59,63.32Z"
                        transform="translate(-26.03 -13.57)"
                      ></path>
                      <path
                        d="M462.6,105.69v-52h11.95l1.26,9.75a21.25,21.25,0,0,1,19.19-11V66.57h-3.77a21.33,21.33,0,0,0-7.87,1.36,10.83,10.83,0,0,0-5.45,4.72Q476,76,476,82v23.7Z"
                        transform="translate(-26.03 -13.57)"
                      ></path>
                      <path
                        d="M311.51,105.69q-8.19,0-13.11-4t-4.93-14.16V39.72h13.42v14H321V64.89H306.89V87.65c0,2.52.53,4.26,1.57,5.24s3,1.37,5.67,1.37h6.5v11.43Z"
                        transform="translate(-26.03 -13.57)"
                      ></path>
                      <path
                        class="cls-1"
                        d="M40.09,52.21a25.92,25.92,0,0,1,51.83,0V72.27L66,87.56,40.09,72.27ZM66,13.57A38.64,38.64,0,0,0,27.36,52.21V79.54L66,102.34l38.64-22.8V52.21A38.64,38.64,0,0,0,66,13.57Z"
                        transform="translate(-26.03 -13.57)"
                      ></path>
                      <path
                        d="M26,102.85V87.56l40,23.58,40-23.58v15.29L66,126.43Z"
                        transform="translate(-26.03 -13.57)"
                      ></path>
                    </svg>